<svg width="91" height="68" viewBox="0 0 91 68" fill="none" xmlns="http://www.w3.org/2000/svg">
<path d="M64.2079 53.0608L64.3367 60.1671C64.7876 60.9468 65.0443 61.379 65.7532 61.8591H67.1698C67.7708 61.2414 68.0435 60.8484 68.3287 59.9979L68.4575 52.8916H70.1316V63.5511M53.5195 53.23V67.1043H54.8073V62.1975C55.5172 62.9463 55.9702 63.274 56.8677 63.7203H58.7993C60.4097 62.6478 60.9975 61.7886 61.5036 59.8287V56.4448C60.8666 54.5991 60.3155 53.8 58.9281 52.8916H56.6101L54.9361 54.2452V52.8916H53.5195V53.23ZM55.1936 56.4448C55.8441 55.2787 56.3418 54.9107 57.3828 54.5836H58.413C59.5067 55.6682 59.7468 56.2051 59.9583 57.1216V59.6595C59.4871 60.6712 59.1442 61.1053 58.413 61.6899C57.8655 62.0318 57.5527 61.9433 56.9965 61.8591C56.1671 61.4235 55.7721 61.046 55.1936 60.1671C55.049 58.7542 55.0334 57.943 55.1936 56.4448Z" stroke="#8CC8F2" stroke-width="0.529936"/>
<path d="M70.1312 63.5511H68.5859V62.3667H68.3284C68.1582 62.8248 67.9608 63.0471 67.4269 63.3819C66.9754 63.6158 66.6935 63.6842 66.1934 63.7169M66.1392 63.7203C66.1575 63.7192 66.1756 63.7181 66.1934 63.7169M66.1934 63.7169L64.8514 63.7203C63.6682 62.7531 63.2312 62.0399 62.791 60.5055V53.0608V52.8916H64.2075V53.0608M72.0629 49L71.9341 63.5511H73.4794V49H72.0629ZM74.8959 60.1671H76.0549C76.5472 61.5846 77.0065 61.9644 78.1153 62.0283C79.3244 62.0689 79.7797 61.7801 79.9182 60.3363C79.5701 59.39 79.1337 59.1425 78.1153 58.9827C76.0501 58.8079 75.2977 58.2059 74.8959 55.9371C75.1841 54.0683 75.5854 53.3669 76.8276 52.8916H79.2743C80.9278 53.565 81.205 54.315 81.2059 55.9371V56.1063H79.9182C79.6716 54.8618 79.2393 54.5384 78.1153 54.4144C76.8184 54.5049 76.5636 54.9609 76.4958 56.1063C77.024 56.9765 77.4669 57.2202 78.3729 57.4599C80.2416 57.6103 80.834 58.1055 81.3347 59.4903V61.3515C81.0758 62.2412 80.7806 62.6809 80.047 63.3819L79.4031 63.7203H77.2139L75.9261 63.0435C75.0693 62.0929 74.7621 61.494 74.8959 60.1671ZM88.6749 57.2907H83.9102C84.3271 55.92 84.6021 55.2085 85.5843 54.7528H86.8721C87.8561 55.3223 88.2767 55.8414 88.6749 57.2907ZM90.0915 58.8135V56.6139C89.5147 54.6019 89.0002 53.6362 87.1296 52.7224H85.4555C83.5295 53.392 82.8626 54.4977 82.2362 57.4599V59.8287C82.8402 61.6281 83.3429 62.3657 84.4253 63.3819C85.722 63.9364 86.4303 64.0012 87.6447 63.3819C89.022 62.6401 89.5318 61.997 89.8339 60.3363H88.5462C88.0251 61.4589 87.4335 61.7776 86.2282 61.8591C84.736 61.6628 84.2121 61.0588 83.9102 58.9827V58.8135H90.0915Z" stroke="#8CC8F2" stroke-width="0.529936"/>
<path d="M0 50.3118V63.7188H1.54246V54.0533L6.7631 63.8747H8.06826V50.3118H6.64445L6.5258 60.1332L1.18651 50.3118H0Z" fill="#177EC6"/>
<path d="M11.1532 52.4943H10.5599C10.2345 52.1884 10.0933 51.9899 9.96667 51.559V50.7795C10.1029 50.3799 10.2144 50.1918 10.5599 50H11.1532C11.4529 50.1851 11.6054 50.3167 11.7464 50.7795V51.559C11.6297 51.9868 11.4921 52.1877 11.1532 52.4943Z" fill="#177EC6"/>
<path d="M14.8314 63.7188L13.2889 63.7148V54.0533H14.8314V54.9887L16.2552 53.7415H17.4417C18.3771 53.8953 18.8971 54.0193 19.696 55.4563C20.1961 54.3759 20.5952 53.9411 21.7131 53.7415H22.6623C24.1051 54.0795 24.5742 54.6484 25.0353 56.0799L25.154 63.7188L23.7302 63.7148V57.1712C23.5362 56.4514 23.2707 56.0828 22.6623 55.4563H21.7131C21.0045 55.7225 20.6351 56.0526 20.052 57.1712V63.7188H18.5095V57.1712C18.3066 56.3804 18.0791 56.0013 17.4417 55.4563H16.2552C15.2816 55.9563 15.1196 56.5605 14.8314 57.6389V63.7188Z" fill="#177EC6"/>
<path d="M35.8326 60.9127L35.7139 53.8974H37.2564V54.0533V60.2891C37.5149 61.2377 37.7694 61.7021 38.5615 62.3157H39.6294C40.5185 61.7191 40.8905 61.2844 41.2905 60.2891V53.8974H42.5956V63.7188H41.2905V62.7834H41.0532C40.6441 63.2194 40.4038 63.4677 39.6294 64.0306H37.8496C36.5989 63.2741 36.2163 62.5334 35.8326 60.9127Z" fill="#177EC6"/>
<path d="M45.0873 60.7568H43.9008C43.8835 62.2036 44.1906 62.7834 45.0873 63.5629L46.2738 63.8747H47.579C47.9702 63.7481 48.1846 63.6813 48.5282 63.5629C49.3159 63.0945 49.6815 62.7259 49.952 61.5363V60.2891C49.8291 59.6629 49.6855 59.3487 49.2401 58.886C48.6715 58.4748 48.2911 58.3273 47.579 58.1066L46.2738 57.9507C45.5742 57.6459 45.3511 57.368 45.3246 56.7035C45.5017 56.0453 45.6752 55.7653 46.2738 55.6122H47.579C48.1567 55.7007 48.4111 55.9203 48.6468 56.8594H49.8333C49.7155 54.9368 49.1784 54.3532 47.8163 53.7415H45.7992C44.7957 54.4232 44.4455 54.9046 44.1381 55.924V57.3271C44.3418 58.046 44.5661 58.3768 45.0873 58.886L46.2738 59.3537L47.579 59.6655C48.1551 59.9216 48.4268 60.0926 48.5282 60.6009V61.3804C48.3628 61.9092 48.1326 62.0956 47.579 62.3157H46.2738C45.616 62.0114 45.3859 61.6231 45.0873 60.7568Z" fill="#177EC6"/>
<path fill-rule="evenodd" clip-rule="evenodd" d="M27.0524 63.7148V50.4677H28.3575V54.9887C29.1187 54.1769 29.5361 53.8664 30.256 53.7415H31.7984C33.3112 54.3847 33.8 55.0471 34.2901 56.5476C34.6526 58.2523 34.6929 59.208 34.2901 60.9127C34.0646 61.9134 33.8039 62.433 32.9849 63.2511C32.3878 63.7441 31.9524 63.8898 31.0865 64.0306H30.1373C29.4288 63.5837 29.044 63.2731 28.4762 62.6275L28.3575 62.4716V63.7148L27.0524 63.7188V63.7148ZM28.3575 59.8214V57.6389C28.9462 56.1005 29.4125 55.8712 30.23 55.4691L30.256 55.4563H31.7984C32.4559 56.199 32.8245 56.6156 32.9849 57.483C33.2084 58.5479 33.2538 59.1774 32.9849 60.445C32.3978 61.4934 32.0158 61.8706 31.2052 62.004H30.1373C29.2777 61.5264 28.9028 61.0174 28.3575 59.8214Z" fill="#177EC6"/>
<path d="M10.3242 54.2092H11.748V63.64H10.3242V54.2092Z" fill="#177EC6" stroke="#177EC6" stroke-width="0.529936"/>
<path fill-rule="evenodd" clip-rule="evenodd" d="M52.1345 5.97021L52.1452 5.97163C53.6421 6.16966 54.7803 6.34235 55.6344 6.62202C56.4835 6.90006 57.0754 7.29108 57.4636 7.94321C57.5553 8.03765 57.646 8.13083 57.7357 8.22294C59.1454 9.67113 60.2977 10.8548 61.1555 12.5083C62.0515 14.2356 62.6203 16.461 62.8632 20.0158L64.8978 19.0222L64.3972 21.7604C66.282 21.2655 67.7917 20.9561 69.2907 21.016C70.8591 21.0786 72.4057 21.5447 74.3552 22.603L74.3776 22.6152L74.3959 22.6345C75.2638 23.553 75.8707 24.3431 76.2266 25.301C76.5833 26.2611 76.6801 27.3678 76.5673 28.9039L76.5664 28.9157L76.5643 28.9272C76.1414 31.2584 75.4951 32.9377 74.3383 34.3612C73.1863 35.7787 71.5391 36.9284 69.141 38.2277L69.1085 38.2453H61.2526L61.2515 38.0556C61.2473 37.2796 61.1743 36.7566 60.9924 36.3314C60.8165 35.9202 60.5297 35.5794 60.0595 35.1897H52.7987C52.3413 35.3259 52.041 35.5901 51.7991 36.0796C51.5459 36.5922 51.3573 37.3509 51.1454 38.4774L51.0562 38.4544C51.0591 38.4563 51.062 38.4581 51.0649 38.46L50.9077 38.7946C49.8227 38.0942 48.9956 37.3999 48.2517 36.3241C47.5107 35.2523 46.8594 33.812 46.1099 31.6326L46.1036 31.6141L46.1006 31.5945C45.3701 26.755 44.7058 24.9811 43.1091 23.5393C42.7789 23.5384 42.5249 23.62 42.2699 23.803C42.0003 23.9964 41.7237 24.307 41.3577 24.7793L38.4034 38.2453H31.5454L31.5034 38.2111C29.3646 36.4655 27.8551 35.0095 27.0394 33.2774C26.2176 31.5321 26.1118 29.5353 26.7121 26.7453C27.0075 24.9502 27.3139 23.5453 27.9547 22.226C28.5967 20.904 29.567 19.6822 31.1711 18.2326L31.2151 18.1929H33.7223L33.7299 18.1937C34.2793 18.2539 34.7067 18.3125 35.0366 18.4279C35.2943 18.5179 35.5002 18.6451 35.6639 18.839L36.024 18.2763C37.1281 16.176 38.0633 14.5688 39.2398 13.1135C40.4185 11.6556 41.8339 10.3566 43.8942 8.86361L43.8969 8.86171C45.3761 7.8346 46.5656 7.12987 47.8215 6.67332C49.0785 6.21634 50.3939 6.01093 52.1237 5.97047L52.1345 5.97021ZM50.8426 38.314C51.0481 37.2324 51.2423 36.4446 51.5171 35.8882C51.807 35.3015 52.1863 34.9724 52.7398 34.8133L52.759 34.8078H60.1621L60.204 34.842C60.7185 35.262 61.0675 35.6548 61.2837 36.1602C61.4816 36.6228 61.5602 37.161 61.5749 37.8634H69.0368C71.4089 36.5758 72.9996 35.4547 74.1023 34.0978C75.2033 32.7431 75.8288 31.1393 76.2435 28.8593C76.3525 27.3617 76.2534 26.3298 75.9278 25.4535C75.6028 24.5788 75.0446 23.8377 74.1958 22.9374C72.2858 21.9034 70.7882 21.458 69.2796 21.3977C67.7609 21.3371 66.2209 21.666 64.2205 22.1986L63.9716 22.2649L64.4488 19.6553L62.572 20.5718L62.5555 20.3076C62.3251 16.6311 61.7582 14.4053 60.877 12.7067C60.0462 11.1052 58.9304 9.95864 57.5095 8.49854C57.4188 8.40533 57.3266 8.3106 57.2334 8.21464L57.2181 8.19882L57.2065 8.17905C56.8794 7.61891 56.3674 7.25861 55.5467 6.98989C54.7243 6.7206 53.6164 6.55075 52.1194 6.3526C50.4145 6.3932 49.1344 6.59594 47.918 7.03812C46.6983 7.48152 45.5347 8.16857 44.0643 9.18944C42.0203 10.6707 40.6297 11.9496 39.4764 13.3762C38.3221 14.804 37.4001 16.3863 36.2975 18.484L36.2936 18.4915L35.6635 19.4761L35.5353 19.2552C35.4066 19.0336 35.2298 18.894 34.9435 18.7939C34.6507 18.6915 34.2577 18.6353 33.7071 18.5748H31.3262C29.7678 19.9894 28.8451 21.1646 28.2379 22.4149C27.6244 23.6782 27.3257 25.0325 27.0312 26.8229L27.0304 26.8283L27.0292 26.8336C26.4392 29.5724 26.5565 31.4615 27.3247 33.0928C28.0946 34.7276 29.5297 36.1318 31.6477 37.8634H38.1507L41.0621 24.5929L41.0891 24.558C41.4696 24.0647 41.7801 23.7066 42.0997 23.4773C42.4272 23.2423 42.7576 23.1468 43.1691 23.1583L43.2218 23.1598L43.2638 23.1972C44.9951 24.7384 45.6811 26.6298 46.4185 31.5083C47.1609 33.6646 47.7962 35.0587 48.5049 36.0836C49.1626 37.0349 49.8896 37.677 50.8426 38.314Z" fill="#8CC6EF"/>
<path fill-rule="evenodd" clip-rule="evenodd" d="M43.0078 28.8383L43.3256 28.8541L44.6632 37.6724H40.9978L43.0078 28.8383ZM41.422 37.2905H44.2743L43.1334 29.7687L41.422 37.2905Z" fill="#8CC6EF"/>
<path d="M51.5171 35.8882C51.2423 36.4446 51.0481 37.2324 50.8426 38.314C49.8896 37.677 49.1626 37.0349 48.5049 36.0836C47.7962 35.0587 47.1609 33.6646 46.4185 31.5083C45.6811 26.6298 44.9951 24.7384 43.2638 23.1972L43.2218 23.1598L43.1691 23.1583C42.7576 23.1468 42.4272 23.2423 42.0997 23.4773C41.7801 23.7066 41.4696 24.0647 41.0891 24.558L41.0621 24.5929L38.1507 37.8634H31.6477C29.5297 36.1318 28.0946 34.7276 27.3247 33.0928C26.5565 31.4615 26.4392 29.5724 27.0292 26.8336L27.0304 26.8283L27.0312 26.8229C27.3257 25.0325 27.6244 23.6782 28.2379 22.4149C28.8451 21.1646 29.7678 19.9894 31.3262 18.5748H33.7071C34.2577 18.6353 34.6507 18.6915 34.9435 18.7939C35.2298 18.894 35.4066 19.0336 35.5353 19.2552L35.6635 19.4761L36.2936 18.4915L36.2975 18.484C37.4001 16.3863 38.3221 14.804 39.4764 13.3762C40.6297 11.9496 42.0203 10.6707 44.0643 9.18944C45.5347 8.16857 46.6983 7.48152 47.918 7.03812C49.1344 6.59594 50.4145 6.3932 52.1194 6.3526C53.6164 6.55075 54.7243 6.7206 55.5467 6.98989C56.3674 7.25861 56.8794 7.61891 57.2065 8.17905L57.2181 8.19882L57.2334 8.21464C57.3266 8.3106 57.4188 8.40533 57.5095 8.49854C58.9304 9.95864 60.0462 11.1052 60.877 12.7067C61.7582 14.4053 62.3251 16.6311 62.5555 20.3076L62.572 20.5718L64.4488 19.6553L63.9716 22.2649L64.2205 22.1986C66.2209 21.666 67.7609 21.3371 69.2796 21.3977C70.7882 21.458 72.2858 21.9034 74.1958 22.9374C75.0446 23.8377 75.6028 24.5788 75.9278 25.4535C76.2534 26.3298 76.3525 27.3617 76.2435 28.8593C75.8288 31.1393 75.2033 32.7431 74.1023 34.0978C72.9996 35.4547 71.4089 36.5758 69.0368 37.8634H61.5749C61.5602 37.161 61.4816 36.6228 61.2837 36.1602C61.0675 35.6548 60.7185 35.262 60.204 34.842L60.1621 34.8078H52.759L52.7398 34.8133C52.1863 34.9724 51.807 35.3015 51.5171 35.8882Z" fill="#8CC6EF"/>
<path d="M44.2743 37.2905H41.422L43.1334 29.7687L44.2743 37.2905Z" fill="#8CC6EF"/>
<g opacity="0.88">
<path d="M49.7585 2.54826L49.7737 2.55088C52.3075 2.98836 54.2271 3.53719 55.9331 4.67394C57.6408 5.81181 59.1208 7.5293 60.7922 10.2758L60.8009 10.2902L60.8074 10.3062C62.0056 13.2851 62.5979 15.0758 62.7653 18.7201C63.9058 18.0979 64.8442 17.6936 65.8185 17.4852C66.8552 17.2636 67.9234 17.2658 69.3093 17.4514L69.3226 17.4531L69.3355 17.4575C70.7964 17.9537 71.836 18.4061 72.653 18.9846C73.4731 19.5654 74.0625 20.2685 74.6319 21.2527C75.3438 22.2865 75.8373 23.1138 76.1948 23.9675C76.5539 24.825 76.7721 25.7005 76.9422 26.8264L76.9448 26.8438V29.8074L76.9446 29.8122C76.88 31.3772 76.7348 32.5166 76.4257 33.4977C76.1165 34.4792 75.6476 35.2885 74.9534 36.202C74.1665 37.4648 73.4419 38.3899 72.573 39.1575C71.7031 39.926 69.2913 41.1745 69.2913 41.1745L69.1285 40.7824C70.4604 40.1578 71.5425 39.5815 72.3803 38.8414C73.2173 38.1019 73.9212 37.206 74.6976 35.9591L74.7024 35.9514L74.7078 35.9443C75.3887 35.0493 75.8309 34.2802 76.1212 33.3586C76.4122 32.4348 76.5551 31.3442 76.6191 29.7976V26.8792C76.4532 25.7868 76.2433 24.9543 75.904 24.144C75.562 23.3274 75.0851 22.5248 74.3769 21.4967L74.3724 21.4903L74.3685 21.4835C73.8198 20.5336 73.2626 19.8712 72.4879 19.3227C71.7106 18.7722 70.708 18.3317 69.26 17.8393C67.8989 17.658 66.8677 17.6592 65.8754 17.8713C64.8792 18.0843 63.9131 18.5118 62.6833 19.1967L62.4635 19.319L62.4522 19.0279C62.3061 15.2643 61.7343 13.5115 60.5207 10.4932C58.8686 7.78091 57.424 6.11551 55.7754 5.01705C54.1256 3.91773 52.2578 3.3768 49.7426 2.94168C48.1645 3.02879 46.9648 3.21306 45.8175 3.59595C44.6694 3.97914 43.5667 4.56362 42.1846 5.45985C39.8809 7.51047 38.981 8.86522 37.6842 11.459C36.9447 13.7302 36.6435 15.0526 36.2316 17.4892L36.2218 17.5471L35.9314 17.8968L35.821 17.811C35.4883 17.5527 35.1316 17.3885 34.0968 17.058H30.2408C28.2956 17.985 27.3872 18.7958 25.935 20.5218C25.1754 21.6927 24.669 22.6381 24.2854 23.6352C23.9024 24.6305 23.6387 25.6852 23.3706 27.0799V30.5653C23.65 32.0805 23.9361 33.2062 24.3662 34.2298C24.7963 35.2532 25.3745 36.1842 26.2475 37.3022C27.9037 38.7832 28.8983 39.3772 30.7295 40.195L37.2928 40.3878C37.9471 39.2874 38.2101 38.6204 38.5203 37.3977L41.2973 23.4326L41.3264 23.395C41.6057 23.0323 41.8424 22.7654 42.1082 22.5683C42.3764 22.3695 42.6652 22.2481 43.043 22.1594L43.1206 22.1412L43.1805 22.2034C44.2104 23.2723 44.9067 24.4314 45.411 26.1655C45.9122 27.8886 46.223 30.1772 46.4925 33.5021C47.3928 39.9922 47.9184 42.8154 48.8461 45.5763L51.3892 36.0076L51.3925 35.9985C51.577 35.4877 51.7543 35.1372 51.9778 34.8786C52.2029 34.6182 52.4629 34.4649 52.7895 34.3236L52.8162 34.3121H60.0414L60.071 34.3266C60.6141 34.5937 61.0119 34.9444 61.2487 35.4645C61.4775 35.9669 61.5426 36.5985 61.4797 37.4021C62.0099 38.4249 62.4284 39.1229 62.8541 39.639C63.2766 40.1512 63.7102 40.489 64.2766 40.7824H69.1285L69.2913 41.1745H64.2102L64.1797 41.1589C63.5652 40.8449 63.0868 40.4776 62.623 39.9153C62.1627 39.3573 61.7211 38.6123 61.1739 37.5527L61.1445 37.4957L61.1502 37.429C61.219 36.6304 61.153 36.0699 60.9631 35.653C60.7786 35.2478 60.4636 34.9489 59.9772 34.7042H52.8731C52.579 34.8337 52.3755 34.9624 52.2035 35.1614C52.0259 35.3668 51.8702 35.6608 51.6944 36.1459L49.0915 45.9399L48.8445 45.8447L48.6231 45.9553C47.6303 43.072 47.096 40.2339 46.1703 33.5601L46.1694 33.5535L46.1689 33.5468C45.8996 30.2218 45.5913 27.9717 45.1036 26.2951C44.6288 24.6622 43.9832 23.5713 43.028 22.5633C42.7163 22.6434 42.4876 22.7475 42.279 22.9022C42.0593 23.0651 41.8536 23.2901 41.5941 23.6241L38.8347 37.5007L38.8332 37.5064C38.5041 38.8048 38.2199 39.5135 37.5067 40.7012L37.4565 40.7848L30.6672 40.5854L30.6418 40.5741C28.7658 39.7376 27.741 39.1275 26.0417 37.6065L26.0301 37.5962L26.0203 37.5836C25.1287 36.4433 24.526 35.4786 24.0756 34.4069C23.6257 33.3361 23.3319 32.1683 23.0487 30.6292L23.0449 30.6082V27.0352L23.0491 27.0134C23.3209 25.5962 23.5914 24.5061 23.9899 23.4704C24.3885 22.4342 24.9124 21.4602 25.6849 20.2704L25.6913 20.2605L25.6987 20.2517C27.1872 18.4815 28.1331 17.6369 30.1501 16.6795L30.1789 16.6659H34.1392L34.1596 16.6724C35.1078 16.9746 35.5301 17.1484 35.885 17.3981L35.9223 17.3532C36.3332 14.9295 36.6408 13.5875 37.386 11.3004L37.391 11.2851L37.3981 11.2709C38.7191 8.62704 39.6463 7.23009 42.0004 5.13616L42.0097 5.12788L42.0199 5.12127C43.4182 4.21388 44.5473 3.61298 45.7305 3.21806C46.9138 2.82314 48.1442 2.63659 49.7432 2.5491L49.7585 2.54826Z" fill="#177EC6"/>
<path d="M47.5349 0.392138C44.8205 0.90178 43.4941 1.40099 41.5312 2.71595C39.4834 4.39333 38.0851 5.85723 37.0122 7.59525C35.9383 9.33505 35.183 11.3614 34.4358 14.1767L34.4013 14.3069L30.5514 14.5085C28.7906 14.8355 27.5079 15.3598 26.3494 16.3514C25.1856 17.3476 24.135 18.8257 22.8546 21.0882C21.7442 23.1368 21.4104 24.2712 21.088 26.3087C20.8481 27.944 20.7916 29.1511 20.882 30.2849C20.9725 31.4195 21.2108 32.4905 21.5707 33.8571C22.3668 36.5164 23.0629 37.7998 24.6212 39.8535C26.7569 41.8481 28.0445 42.4796 30.3965 43.3313H38.1442C38.6708 42.9534 39.0268 42.6355 39.3015 42.2765C39.5796 41.9131 39.7817 41.498 39.9888 40.9139L42.917 27.9863L43.234 28.0009L45.5134 42.3116L46.3229 46.7952C46.5718 47.3984 46.7803 47.8142 47.0139 48.1505C47.2491 48.489 47.5151 48.7548 47.8862 49.0497L47.8954 49.057L47.9037 49.0657C48.0724 49.2433 48.1985 49.359 48.329 49.4405C48.4517 49.5172 48.5855 49.5679 48.7721 49.603C49.3652 49.4809 49.7614 49.3027 50.0729 48.984C50.3902 48.6594 50.6378 48.1707 50.9002 47.3813L51.551 45.0304L52.5274 41.8955L53.176 39.3572L53.5315 37.6453H59.1619L59.191 37.7973C59.3656 38.7102 59.5024 39.3957 59.7443 40.0142C59.9832 40.6252 60.3282 41.1784 60.9281 41.8084C61.7119 42.5666 62.3561 43.057 63.0574 43.4011C63.758 43.7448 64.524 43.9466 65.5569 44.1155H69.102L72.4804 42.7596C73.2514 42.2152 73.8105 41.7605 74.294 41.2408C74.7798 40.7186 75.1945 40.1252 75.671 39.2981L75.6844 39.2748L75.7028 39.257C76.376 38.6057 76.7995 38.0829 77.1 37.5366C77.4001 36.9911 77.5839 36.4109 77.7649 35.6318L77.7717 35.6027L77.7853 35.5775C78.2181 34.7785 78.4946 34.1406 78.6843 33.4728C78.8732 32.8076 78.9785 32.104 79.0613 31.1685L78.8989 26.2811L79.2243 26.2654L79.3876 31.1814L79.3864 31.1956C79.3023 32.1512 79.1936 32.8915 78.9925 33.5996C78.7932 34.3012 78.5058 34.9625 78.0718 35.7664C77.8888 36.549 77.6946 37.1658 77.3716 37.7531C77.048 38.3414 76.6012 38.8889 75.9252 39.5449C75.4447 40.3764 75.0169 40.9894 74.5109 41.5333C74.001 42.0814 73.4168 42.5538 72.6303 43.1083L72.6156 43.1187L69.1548 44.5077H65.5349L65.5241 44.5059C64.4743 44.3347 63.6744 44.1272 62.9345 43.7642C62.1936 43.4008 61.5214 42.8857 60.7216 42.1116L60.719 42.1092L60.7166 42.1066C60.0876 41.4466 59.7114 40.8507 59.4496 40.1812C59.205 39.5558 59.0634 38.8728 58.9028 38.0374H53.7858L53.4899 39.4625L52.8358 42.0221L51.8581 45.1613L51.2062 47.5162L51.2044 47.5215C50.9348 48.3337 50.6626 48.8953 50.2838 49.2828C49.9029 49.6725 49.4324 49.8678 48.8004 49.9949L48.7752 50L48.7499 49.9955C48.5243 49.9558 48.3473 49.8937 48.179 49.7886C48.0156 49.6866 47.8681 49.5485 47.6976 49.3697C47.3143 49.0642 47.0238 48.7759 46.7641 48.4021C46.5037 48.0272 46.2796 47.574 46.0222 46.9475L46.0132 46.9258L45.1947 42.3926L45.1939 42.3879L43.0464 28.9052L40.2971 41.0429L40.2928 41.0552C40.0757 41.6697 39.855 42.1319 39.541 42.5422C39.2283 42.9508 38.8306 43.2982 38.2718 43.6961L38.2334 43.7234H30.3487L30.3258 43.7151C27.9286 42.8482 26.5999 42.1998 24.4105 40.153L24.3996 40.1427L24.3902 40.1304C22.7992 38.0353 22.0777 36.708 21.2632 33.9864L21.2621 33.9828L21.2612 33.9792C20.8992 32.6047 20.6518 31.5007 20.5578 30.3224C20.4638 29.1426 20.5241 27.8981 20.7675 26.2391L20.7679 26.2366C21.098 24.1499 21.4472 22.9671 22.5827 20.8722L22.5845 20.869C23.8719 18.5941 24.9489 17.0691 26.1607 16.0318C27.3762 14.9913 28.7152 14.4517 30.5107 14.1193L30.5194 14.1176L34.1603 13.927C34.9017 11.1586 35.6636 9.12266 36.7509 7.36132C37.8552 5.57238 39.2879 4.07855 41.3541 2.38677L41.3601 2.38184L41.3664 2.37759C43.3708 1.03395 44.7348 0.521869 47.4707 0.00730491V0H51.7301L51.7545 0.00945259C56.1629 1.72015 59.0519 3.42485 60.9963 5.74061C62.9203 8.03194 63.9034 10.9016 64.5409 14.9012H64.7139C66.6108 14.395 68.1298 14.2709 69.6729 14.6368C71.2183 15.0033 72.7743 15.8581 74.7486 17.2819L74.7604 17.2905L74.7709 17.3013C76.7581 19.3516 77.5214 20.4276 77.9086 22.0725C78.3233 22.816 78.6059 23.4193 78.8075 24.0467C79.0115 24.6819 79.1298 25.3333 79.223 26.168L78.9002 26.2202C78.809 25.4026 78.6952 24.7843 78.5037 24.1882C78.312 23.5915 78.0397 23.0086 77.6238 22.2654L77.6091 22.239L77.602 22.2085C77.2459 20.6704 76.5555 19.66 74.5694 17.6098C72.6134 16.2002 71.0982 15.3745 69.61 15.0216C68.1214 14.6686 66.6463 14.7855 64.7671 15.2887L64.7496 15.2934H64.2709L64.246 15.1335C63.6152 11.0887 62.6504 8.26207 60.7673 6.0194C58.8827 3.77489 56.0616 2.09503 51.6789 0.392138H47.5349Z" fill="#177EC6"/>
</g>
</svg>
